<?xml version="1.0" standalone="no"?>
<!DOCTYPE svg PUBLIC "-//W3C//DTD SVG 20010904//EN"
 "http://www.w3.org/TR/2001/REC-SVG-20010904/DTD/svg10.dtd">
<svg version="1.0" xmlns="http://www.w3.org/2000/svg"
 width="600.000000pt" height="600.000000pt" viewBox="0 0 600.000000 600.000000"
 preserveAspectRatio="xMidYMid meet">
<metadata>
Created by potrace 1.11, written by Peter Selinger 2001-2013
</metadata>
<g transform="translate(0.000000,600.000000) scale(0.100000,-0.100000)"
fill="#000000" stroke="none">
<path d="M393 5985 c-185 -40 -339 -196 -378 -382 -20 -92 -22 -1642 -3 -1661
9 -9 9 -12 0 -12 -7 0 -12 -4 -12 -10 0 -19 28 -10 33 11 4 15 12 20 29 17 18
-2 23 -9 21 -31 -1 -15 2 -27 8 -27 5 0 9 3 10 8 0 4 2 22 3 40 3 25 1 30 -8
23 -9 -7 -16 -7 -24 1 -8 8 -15 8 -27 -2 -8 -7 -19 -10 -22 -6 -13 13 19 24
64 23 37 0 43 -3 37 -19 -9 -28 5 -21 17 8 5 15 12 24 16 21 3 -4 -6 -30 -20
-58 -28 -53 -34 -79 -17 -79 5 0 7 6 5 13 -6 18 20 48 43 50 11 0 19 5 16 9
-3 4 -11 5 -19 1 -21 -8 -18 8 8 44 18 25 24 28 35 17 6 -7 12 -18 12 -24 0
-5 4 -10 10 -10 5 0 15 20 21 45 6 25 16 45 21 45 6 0 7 -7 2 -17 -4 -10 -8
-30 -8 -46 -1 -22 -6 -28 -34 -33 -17 -3 -32 -11 -32 -16 0 -5 9 -7 20 -3 14
4 27 -2 43 -21 28 -32 47 -25 47 17 0 19 -5 29 -15 29 -8 0 -15 3 -15 8 1 12
69 42 83 36 8 -3 14 1 14 8 0 7 4 21 8 31 5 13 3 16 -8 11 -15 -5 -64 33 -54
42 2 2 10 -2 17 -11 15 -19 115 -20 189 -3 62 14 57 29 -7 23 -26 -3 -42 -3
-35 1 7 3 10 11 7 19 -3 7 3 16 14 19 11 4 25 13 31 20 9 10 4 13 -21 14 -18
0 -38 -4 -45 -10 -8 -6 -16 -8 -20 -4 -3 3 0 6 8 7 8 0 -2 7 -21 14 -35 13
-35 13 33 14 43 1 66 5 62 11 -3 6 -25 10 -48 10 -24 0 -37 4 -32 9 11 10 65
19 155 27 55 4 55 4 27 -12 -42 -23 -25 -29 20 -6 65 33 166 47 232 32 77 -17
81 -18 81 -28 0 -9 -93 -78 -199 -148 -62 -42 -118 -67 -130 -59 -12 7 -81
-23 -81 -36 0 -5 -3 -8 -8 -5 -4 2 -12 -7 -19 -20 -14 -31 -11 -30 24 4 20 21
42 31 79 36 29 3 73 20 105 39 73 43 106 57 122 51 7 -2 33 2 57 11 23 8 45
13 47 11 4 -4 -71 -53 -122 -79 -16 -9 -26 -16 -22 -17 13 0 69 31 120 66 72
52 86 44 41 -21 -30 -45 -20 -58 33 -42 38 12 55 -1 50 -38 -1 -16 3 -19 21
-18 42 5 62 -14 62 -57 0 -39 0 -39 34 -33 30 5 36 2 50 -25 12 -23 20 -28 39
-25 21 4 25 0 31 -29 7 -31 8 -32 16 -11 8 20 12 22 35 11 14 -6 28 -22 31
-35 7 -27 17 -29 34 -8 7 8 19 15 26 15 8 0 14 -7 14 -15 0 -20 10 -19 35 5
l22 20 24 -22 c13 -13 30 -36 37 -51 15 -36 32 -26 32 19 0 38 4 40 43 22 26
-13 27 -15 27 -103 0 -71 6 -105 26 -160 36 -100 37 -102 30 -130 -4 -17 -13
-25 -27 -25 -45 0 -1 -39 61 -54 15 -3 9 2 -15 14 l-40 20 50 -4 c48 -4 49 -4
15 7 -19 6 -36 11 -37 12 -1 0 4 25 12 55 19 69 19 114 1 129 -8 6 -24 35 -36
64 -19 44 -22 63 -17 126 3 40 9 77 14 82 5 5 20 -2 34 -15 14 -13 34 -28 46
-34 19 -11 20 -9 18 33 -2 44 -1 45 19 31 18 -12 33 -54 39 -118 1 -9 11 -24
22 -33 l20 -15 -20 7 c-11 3 -33 15 -48 26 l-28 19 16 -38 c8 -22 28 -50 43
-64 43 -40 94 -109 88 -119 -3 -5 3 -19 13 -32 10 -13 28 -43 40 -66 25 -50
33 -55 125 -78 80 -19 182 -65 167 -74 -6 -4 20 -29 57 -56 57 -42 64 -50 45
-53 -28 -4 -29 -10 -5 -28 9 -8 -7 -2 -37 13 -33 17 -57 36 -63 53 -6 14 -13
31 -17 39 -7 14 -69 36 -130 46 -18 3 -37 8 -42 11 -5 3 -9 0 -9 -6 0 -6 11
-15 25 -20 14 -5 25 -14 25 -20 0 -6 4 -8 10 -5 16 10 88 -34 102 -62 8 -17
33 -38 64 -53 61 -30 86 -49 78 -61 -3 -5 1 -9 8 -9 33 -1 -43 -40 -89 -46
-70 -8 -143 15 -219 72 -32 24 -65 44 -72 44 -7 0 -11 4 -8 9 3 4 -4 17 -17
27 l-22 19 20 -24 c15 -17 16 -23 5 -19 -8 2 -23 19 -32 37 -9 18 -26 43 -38
56 -23 24 -118 65 -152 65 -11 0 -31 9 -45 20 -15 11 -29 17 -32 14 -3 -4 -1
-9 5 -11 6 -2 19 -10 30 -17 17 -13 15 -15 -20 -33 -35 -18 -37 -21 -22 -35
14 -14 11 -17 -29 -27 -24 -6 -53 -11 -64 -11 -12 0 -21 -5 -21 -11 0 -6 9 -9
20 -6 11 3 20 1 20 -4 0 -4 21 3 48 16 80 40 251 60 244 27 -1 -6 3 -11 9 -10
6 2 16 -10 22 -27 5 -16 17 -39 26 -49 29 -34 93 -76 116 -76 12 0 33 -11 46
-24 32 -31 82 -56 113 -56 37 0 106 -30 106 -46 0 -8 6 -14 13 -14 6 0 0 -11
-16 -24 -34 -29 -115 -52 -130 -37 -14 14 -267 15 -267 2 0 -5 -33 -9 -73 -8
-59 1 -81 -3 -111 -21 -37 -22 -106 -30 -106 -12 0 16 33 28 106 41 38 6 92
22 119 36 54 26 85 51 50 39 -19 -6 -19 -5 1 12 21 18 21 19 3 30 -27 17 -37
15 -13 -3 24 -18 20 -18 -36 -1 -73 22 -165 29 -218 17 -53 -13 -70 -38 -77
-108 -3 -25 -1 -31 4 -18 8 19 8 19 19 0 10 -18 12 -19 24 -3 8 10 35 19 68
22 55 7 55 7 22 -8 -18 -9 -38 -13 -45 -10 -7 2 -24 -5 -37 -16 l-23 -20 20
-20 c16 -14 30 -17 59 -14 22 3 47 6 56 7 9 1 14 5 12 9 -3 4 8 10 23 14 15 3
36 8 46 11 9 2 27 1 39 -3 17 -5 6 -11 -53 -31 -72 -23 -175 -32 -244 -21 -31
5 -75 25 -75 34 0 2 14 -3 31 -12 31 -15 32 -15 23 2 -12 25 -9 137 4 161 27
49 -62 117 -152 116 -117 -1 -196 -37 -299 -137 -50 -49 -54 -51 -75 -37 -11
6 -12 24 -7 73 5 47 4 68 -5 73 -9 5 -10 1 -5 -14 7 -24 -14 -64 -43 -80 -20
-11 -23 -1 -24 89 0 47 31 205 49 250 7 17 9 28 11 52 1 9 10 24 19 34 12 12
14 19 6 21 -13 5 13 93 28 93 5 0 6 14 3 30 -4 17 -2 30 3 30 5 0 10 11 11 25
1 14 0 25 -3 25 -2 0 -27 -30 -55 -66 l-50 -67 0 33 c0 32 -1 33 -15 14 -14
-18 -14 -18 -15 9 0 42 -18 32 -18 -11 0 -20 -8 -60 -17 -87 -10 -27 -18 -58
-20 -70 -5 -44 -17 -65 -38 -66 -108 -4 -106 -6 -161 93 -44 79 -74 103 -170
136 -90 30 -158 26 -240 -13 -57 -28 -136 -98 -136 -121 0 -6 -8 -22 -19 -35
-10 -13 -33 -52 -51 -86 -18 -35 -41 -65 -52 -68 -10 -4 -16 -10 -13 -15 3 -5
21 -2 39 5 19 8 65 24 103 36 37 11 95 29 128 39 33 10 71 19 85 18 14 0 50 5
81 11 47 10 71 9 135 -5 138 -28 167 -69 162 -226 -1 -51 3 -92 10 -105 15
-27 6 -30 -20 -6 -17 15 -18 15 -18 -8 0 -14 5 -30 12 -37 6 -6 9 -14 6 -18
-11 -10 -46 15 -64 46 -26 43 -40 44 -42 2 -2 -19 -5 -39 -8 -44 -3 -4 -1 -8
5 -8 6 0 8 -7 5 -15 -4 -8 -1 -15 5 -15 6 0 11 -7 11 -15 0 -8 -3 -15 -6 -15
-13 0 -50 24 -65 43 -11 13 -22 18 -34 13 -17 -6 -17 -7 1 -21 26 -20 15 -19
-68 9 -73 24 -121 44 -233 96 -71 33 -175 68 -227 77 l-38 6 0 -207 c0 -188 6
-236 24 -189 4 9 1 20 -6 25 -7 5 -8 8 -3 6 6 -3 25 -10 42 -17 18 -7 30 -17
27 -22 -3 -5 6 -9 19 -9 14 0 30 -6 36 -14 7 -8 22 -17 34 -20 13 -3 29 -20
39 -41 9 -22 11 -32 4 -26 -7 6 -22 9 -33 7 -17 -4 -20 0 -15 17 5 20 6 20 13
1 7 -18 8 -18 8 2 1 26 -27 40 -35 19 -4 -8 -11 -15 -16 -15 -6 0 -8 7 -4 15
3 8 1 15 -4 15 -16 0 -22 -21 -10 -35 7 -9 8 -15 2 -15 -13 0 -21 22 -18 53 2
20 -1 25 -21 25 -13 0 -25 -4 -28 -8 -3 -4 3 -7 12 -6 9 0 18 -5 20 -12 3 -7
-1 -10 -9 -7 -7 3 -20 1 -28 -5 -13 -8 -12 -11 5 -25 15 -12 16 -15 4 -12 -9
3 -22 0 -29 -6 -10 -10 -11 -4 -7 28 5 30 4 36 -4 25 -9 -12 -10 -10 -6 8 3
12 1 20 -4 17 -5 -4 -9 -456 -9 -1061 0 -1172 -2 -1137 66 -1251 47 -78 125
-155 194 -192 121 -65 -70 -61 2745 -61 2821 0 2612 -5 2736 61 71 38 167 136
203 207 56 110 56 112 56 797 l0 632 -22 10 c-13 6 -32 7 -43 2 -11 -4 -27 -8
-35 -8 -20 -1 -38 41 -29 65 6 16 8 16 8 2 1 -25 36 -41 60 -29 26 14 31 33
24 91 -6 55 9 69 25 23 7 -19 10 591 11 1830 1 2044 5 1921 -60 2049 -63 125
-207 231 -348 258 -35 7 -914 10 -2595 9 -2098 0 -2552 -3 -2603 -14z m1156
-381 c17 -8 42 -30 55 -47 32 -42 61 -156 57 -222 -1 -17 -3 -18 -11 -5 -9 13
-11 13 -20 0 -17 -27 -33 6 -36 74 -2 65 -21 119 -64 184 -25 37 -24 38 19 16z
m-124 -54 c3 -5 1 -10 -4 -10 -6 0 -11 5 -11 10 0 6 2 10 4 10 3 0 8 -4 11
-10z m-338 -178 c20 -30 39 -49 41 -43 2 7 -3 20 -11 29 -21 25 -88 144 -84
149 5 4 64 -83 96 -142 12 -22 37 -60 56 -85 19 -25 48 -67 65 -95 17 -27 40
-65 51 -83 12 -18 20 -35 18 -37 -3 -2 -38 46 -78 106 -41 60 -81 115 -89 122
-19 15 -15 8 45 -80 24 -35 43 -67 43 -71 0 -4 21 -33 46 -65 25 -32 44 -60
42 -62 -2 -3 -33 10 -68 28 -70 34 -120 93 -139 163 -5 19 -27 64 -48 100 -63
109 -65 114 -70 178 l-4 61 25 -59 c14 -33 42 -84 63 -114z m933 120 c5 -20
10 -54 10 -74 l0 -38 67 45 c107 72 152 50 80 -39 -24 -29 -36 -56 -40 -90 -4
-27 -13 -59 -20 -70 -7 -12 -19 -34 -26 -51 -12 -29 -12 -29 6 -12 11 9 23 17
28 17 5 0 54 27 109 59 56 33 113 63 129 66 23 6 27 4 27 -14 0 -65 -87 -159
-207 -226 -60 -33 -76 -36 -67 -10 4 10 -3 11 -30 5 -42 -9 -44 -5 -13 21 l22
20 -33 -4 c-24 -3 -32 0 -28 10 3 8 -2 13 -14 13 -11 0 -20 4 -20 9 0 4 -11 6
-25 3 -20 -3 -24 -1 -19 12 11 29 -13 17 -75 -39 -34 -30 -66 -55 -71 -55 -17
0 -11 8 24 28 37 22 72 70 43 59 -11 -4 -13 0 -10 14 3 11 2 19 -3 18 -14 -3
-48 13 -57 28 -12 19 -27 16 -37 -9 -7 -20 -9 -17 -9 17 -1 79 87 222 183 295
28 21 54 36 58 34 4 -3 12 -21 18 -42z m-1046 -231 c47 -78 86 -145 86 -148 0
-17 56 -76 88 -93 36 -19 36 -20 7 -14 -47 10 -111 50 -142 91 -28 37 -73 133
-73 158 0 7 -15 32 -33 56 -50 66 -67 103 -67 151 l0 43 24 -50 c12 -28 62
-115 110 -194z m445 179 l-1 -35 -8 30 c-4 17 -8 39 -9 50 -1 16 1 17 9 5 5
-8 9 -31 9 -50z m4 -98 c4 -21 3 -31 -3 -27 -6 3 -10 20 -10 37 0 38 5 34 13
-10z m-148 -40 c-8 -9 -25 20 -18 31 3 5 10 2 15 -7 6 -10 7 -20 3 -24z m-29
-44 c24 -33 44 -65 44 -70 0 -6 -15 10 -32 35 -18 25 -44 60 -57 78 -14 18
-19 29 -12 25 7 -5 33 -35 57 -68z m421 30 c-3 -8 -6 -5 -6 6 -1 11 2 17 5 13
3 -3 4 -12 1 -19z m-37 -17 c0 -11 -4 -23 -10 -26 -6 -4 -10 5 -10 19 0 14 5
26 10 26 6 0 10 -9 10 -19z m-821 -66 c29 -25 56 -43 60 -40 3 4 -3 13 -13 21
-32 23 -8 16 37 -11 23 -13 53 -41 67 -62 35 -54 86 -104 96 -95 5 4 6 3 2 -2
-4 -5 8 -27 27 -49 51 -59 43 -69 -12 -16 -27 25 -77 68 -113 94 -36 27 -105
89 -155 138 -93 92 -91 104 4 22z m-58 3 c30 -29 53 -56 51 -60 -1 -5 5 -8 14
-8 9 0 54 -34 100 -76 93 -84 193 -164 206 -164 4 0 8 -4 8 -9 0 -6 -12 -6
-32 0 -62 17 -68 14 -47 -27 10 -20 25 -44 34 -54 21 -24 10 -30 -54 -30 -87
1 -129 26 -200 117 -33 43 -77 100 -98 126 -52 67 -93 130 -93 144 0 13 39 12
72 -2 15 -6 15 -3 -2 34 -18 36 -25 61 -17 61 2 0 28 -24 58 -52z m1779 11 c0
-29 -16 -57 -64 -110 -23 -26 -53 -60 -67 -76 l-26 -30 135 1 c98 1 136 -2
139 -11 5 -15 -49 -50 -100 -64 -21 -5 -66 -30 -100 -54 -103 -74 -161 -97
-252 -102 l-80 -3 53 20 c58 24 67 40 22 40 -16 0 -30 5 -30 10 0 6 5 10 10
10 6 0 6 7 -2 19 -9 16 -17 17 -45 9 -19 -5 -42 -7 -51 -5 -12 3 -10 5 6 6 15
1 21 5 16 13 -4 7 -3 8 5 4 14 -9 81 12 81 25 0 6 -8 5 -21 -1 -11 -6 -24 -10
-30 -8 -5 2 26 29 68 61 43 32 87 65 98 74 11 8 -7 0 -40 -17 -33 -18 -69 -40
-80 -49 -11 -10 -33 -26 -50 -36 -16 -10 28 38 98 107 111 109 138 130 200
156 86 37 107 39 107 11z m-850 -9 c0 -5 -5 -10 -11 -10 -5 0 -7 5 -4 10 3 6
8 10 11 10 2 0 4 -4 4 -10z m-236 -26 c9 -8 16 -27 16 -40 0 -14 5 -35 11 -47
10 -21 9 -21 -10 2 -12 13 -21 36 -21 52 0 16 -7 32 -17 38 -10 6 -13 11 -6
11 6 0 19 -7 27 -16z m235 -66 c0 -7 -4 -22 -8 -32 -10 -26 -25 -3 -16 24 7
22 25 28 24 8z m-299 -32 c0 -3 -4 -8 -10 -11 -5 -3 -10 -1 -10 4 0 6 5 11 10
11 6 0 10 -2 10 -4z m356 -32 c10 -8 13 -12 6 -9 -8 4 -26 11 -40 15 -22 7
-23 8 -6 9 11 1 29 -6 40 -15z m-1176 -89 c0 -7 8 -16 19 -20 23 -7 59 -45 43
-45 -7 0 -12 3 -12 8 0 4 -10 13 -22 20 -13 7 5 -14 40 -47 50 -47 59 -60 45
-64 -18 -5 33 -10 72 -8 11 1 38 -10 60 -24 22 -13 52 -30 68 -36 15 -6 27
-16 27 -23 0 -6 20 -35 45 -63 l46 -52 -37 -16 c-45 -19 -129 -19 -180 -1 -22
7 -60 27 -86 45 -25 17 -78 44 -116 61 -87 37 -142 69 -142 82 0 6 -8 7 -17 4
-11 -4 -8 2 7 13 28 23 111 36 171 28 21 -3 39 -3 39 0 0 3 -19 28 -42 55 -23
28 -42 58 -43 68 -1 10 -9 29 -18 43 -9 15 -17 30 -17 34 1 14 50 -47 50 -62z
m1500 25 c-33 -26 -50 -26 -20 0 13 11 28 20 34 20 6 0 0 -9 -14 -20z m600
-85 c-7 -8 -17 -15 -23 -15 -6 0 -2 7 9 15 25 19 30 19 14 0z m-156 -140 c-21
-16 -64 -20 -64 -6 0 9 22 15 69 20 10 1 8 -4 -5 -14z m96 5 c-8 -5 -19 -10
-25 -10 -5 0 -3 5 5 10 8 5 20 10 25 10 6 0 3 -5 -5 -10z m-207 -7 c-7 -2 -19
-2 -25 0 -7 3 -2 5 12 5 14 0 19 -2 13 -5z m147 -59 c0 -3 -20 -14 -45 -25
-25 -11 -43 -25 -39 -30 3 -6 -3 -13 -15 -16 -12 -3 -21 -13 -21 -23 0 -15
-12 -19 -72 -23 -65 -4 -80 -1 -133 24 l-60 28 40 1 c22 0 76 16 120 34 64 27
95 34 153 35 39 0 72 -2 72 -5z m-2023 -80 c142 -75 161 -84 177 -84 37 0 21
-18 -21 -24 -81 -11 -99 -7 -189 44 -49 27 -97 50 -106 50 -34 0 -68 19 -62
34 5 13 29 20 91 24 11 1 61 -19 110 -44z m1920 -76 c21 -12 52 -33 68 -48 17
-15 39 -32 50 -38 38 -20 -32 -26 -153 -12 -89 10 -123 18 -149 36 -18 12 -39
25 -46 27 -8 3 -5 10 8 21 13 10 41 16 85 16 36 0 72 5 80 10 19 12 13 13 57
-12z m-1502 -13 c-16 -8 -43 -14 -60 -14 -29 1 -28 2 10 14 55 19 90 18 50 0z
m-89 -40 c9 -8 30 -15 47 -15 18 0 38 -4 46 -9 35 -22 -111 -141 -174 -141
-11 0 -63 11 -115 24 -55 14 -126 24 -169 25 -76 1 -111 7 -111 20 0 4 26 19
58 33 131 59 385 97 418 63z m1919 -65 c-3 -5 1 -10 9 -10 26 0 18 -14 -19
-34 -19 -11 -35 -25 -35 -32 0 -6 16 -35 35 -64 19 -29 35 -54 35 -56 0 -3 8
-17 17 -31 l17 -26 7 24 c4 13 8 40 8 59 1 19 7 45 15 58 12 23 13 23 24 -15
42 -142 111 -441 117 -503 3 -41 8 -85 11 -98 5 -23 4 -23 -14 -5 -11 10 -22
25 -26 33 -3 8 -3 -9 0 -39 4 -30 7 -71 9 -91 1 -20 8 -46 14 -59 20 -36 5
-36 -28 1 -45 49 -105 214 -130 353 -13 72 -35 152 -55 200 -19 44 -37 89 -41
100 -6 19 -7 19 -19 -3 -11 -21 -14 -18 -44 48 -18 39 -32 76 -31 83 0 6 5 1
10 -12 12 -30 23 -20 15 14 -4 14 -13 25 -21 25 -8 0 -15 5 -15 10 0 6 -4 10
-10 10 -16 0 -12 -212 5 -320 19 -111 29 -131 21 -40 l-6 65 14 -40 c8 -22 15
-52 15 -66 1 -14 5 -39 10 -55 5 -16 17 -65 26 -109 20 -90 36 -130 30 -75 -5
53 -31 174 -70 332 -19 79 -37 168 -40 198 l-5 55 15 -50 c8 -27 24 -93 34
-145 11 -52 28 -116 39 -142 32 -73 70 -263 75 -378 l6 -105 -15 75 c-8 41
-18 82 -21 90 -3 8 -5 19 -4 23 1 5 -3 6 -8 2 -6 -3 -24 25 -41 62 -17 37 -34
70 -38 73 -21 14 -52 71 -52 93 0 14 -5 29 -10 32 -7 4 -8 -3 -4 -22 6 -25 -1
-20 -62 39 -38 37 -105 97 -149 133 -44 36 -81 70 -83 76 -2 5 -8 9 -13 9 -9
0 -6 -42 6 -75 30 -84 116 -274 101 -222 -10 32 9 10 58 -70 27 -43 57 -89 67
-103 11 -14 40 -55 65 -92 46 -70 69 -93 37 -37 -10 17 -62 99 -116 182 -54
84 -109 176 -123 205 -14 28 -41 78 -60 109 -43 72 -44 91 -2 32 17 -24 73
-100 123 -169 123 -167 164 -232 198 -315 26 -64 77 -209 77 -220 0 -13 -24 0
-96 53 -182 131 -209 162 -250 293 -13 42 -30 82 -38 88 -8 6 -33 15 -56 19
-40 7 -44 11 -80 77 -49 88 -85 179 -68 169 7 -4 27 -18 44 -31 18 -13 42 -26
55 -28 12 -3 27 -9 33 -15 18 -18 26 -11 26 24 0 42 -9 68 -21 60 -5 -3 -7
-10 -4 -15 3 -5 -1 -6 -10 -2 -11 4 -13 8 -5 13 7 4 -6 22 -34 48 -24 22 -41
43 -38 46 10 11 77 6 102 -7 59 -31 57 -23 -11 43 -40 38 -71 72 -68 74 2 3
32 -9 66 -26 58 -28 69 -30 183 -32 l121 -1 -7 -52 c-6 -50 10 -113 29 -113 4
0 4 8 -1 18 -10 17 -8 94 3 189 l6 52 -38 -11 c-21 -6 -76 -8 -123 -6 -74 4
-95 9 -162 43 -43 21 -76 40 -75 41 1 1 43 -5 92 -13 81 -13 194 -13 260 1 11
3 55 5 98 5 84 1 106 18 30 24 -40 3 -36 4 20 5 43 1 66 -2 62 -8z m257 -49
c7 20 52 -72 78 -161 20 -69 21 -81 10 -145 -7 -38 -16 -86 -21 -105 -5 -19
-9 -51 -9 -70 l0 -35 -21 33 c-12 18 -22 51 -23 75 0 23 -4 44 -7 47 -3 3 -18
38 -34 78 -15 40 -36 82 -48 92 -18 18 -61 119 -53 127 1 2 11 -15 21 -37 24
-53 45 -71 45 -39 1 86 8 178 15 189 5 9 13 1 25 -25 11 -23 19 -32 22 -24z
m254 -94 c23 -181 16 -312 -28 -500 -14 -61 -25 -91 -29 -80 -4 11 -9 -4 -14
-39 -4 -32 -11 -56 -15 -53 -5 3 -12 0 -16 -6 -4 -7 -3 -9 4 -5 19 11 22 -10
8 -50 l-14 -39 -7 30 c-4 17 -12 46 -18 65 -28 91 -9 387 39 600 16 70 64 193
72 185 3 -3 11 -51 18 -108z m204 94 c0 -11 -10 -61 -21 -113 -15 -64 -30
-104 -50 -129 -18 -23 -29 -50 -32 -80 -3 -40 -4 -39 -6 16 -2 33 -7 71 -12
85 -6 18 -7 11 -4 -25 11 -124 10 -130 -24 -183 -18 -29 -34 -52 -35 -52 -1 0
2 30 6 68 5 37 7 117 4 177 l-4 110 13 -65 c8 -36 14 -96 15 -135 0 -51 3 -66
11 -58 15 15 -5 227 -26 277 -22 51 -18 57 9 13 l23 -38 18 28 c29 44 97 123
107 123 4 0 8 -9 8 -19z m9 -75 c-9 -8 -10 -7 -5 7 3 10 7 28 7 40 2 16 3 14
6 -7 3 -16 -1 -34 -8 -40z m-2939 49 c0 -2 -10 -9 -22 -15 -22 -11 -22 -10 -4
4 21 17 26 19 26 11z m367 -20 c3 -9 -2 -24 -12 -35 -14 -15 -30 -19 -78 -19
l-61 1 29 16 c17 8 41 23 54 33 29 23 60 24 68 4z m2741 -102 c3 -61 2 -76 -8
-66 -7 6 -16 26 -21 45 -7 27 -8 23 -4 -22 2 -30 1 -47 -3 -37 -5 12 -19 -19
-46 -105 -40 -126 -95 -272 -96 -252 0 6 7 31 16 55 23 63 33 110 23 103 -5
-3 -9 3 -9 13 0 15 -2 15 -9 3 -6 -8 -7 -18 -4 -24 3 -5 1 -6 -5 -2 -7 4 -12
1 -12 -7 0 -7 -11 -37 -25 -65 -28 -57 -31 -77 -13 -88 7 -5 5 -11 -7 -21 -11
-7 -15 -13 -11 -13 5 0 3 -7 -4 -15 -15 -18 -30 -19 -30 -2 0 13 64 189 82
224 6 13 9 26 5 29 -3 4 -12 -6 -18 -22 -7 -16 -20 -47 -29 -69 -40 -92 -89
-289 -91 -365 -1 -67 -38 111 -39 187 0 82 25 168 71 243 15 25 42 70 60 100
56 95 121 193 157 238 31 39 36 42 50 28 10 -9 17 -42 20 -93z m-3245 70 c-7
-2 -21 -2 -30 0 -10 3 -4 5 12 5 17 0 24 -2 18 -5z m-86 -19 c-3 -3 -12 -4
-19 -1 -8 3 -5 6 6 6 11 1 17 -2 13 -5z m23 -78 c-7 -7 -13 -7 -20 0 -6 6 -3
10 10 10 13 0 16 -4 10 -10z m3469 -94 c6 -31 10 -109 8 -172 l-3 -115 -67
-98 c-37 -55 -74 -113 -82 -131 -9 -18 -30 -43 -48 -56 -26 -19 -29 -20 -14
-3 21 24 22 33 2 33 -13 0 -14 4 -5 21 6 11 10 30 9 42 -1 12 3 35 10 51 21
53 4 52 -29 -2 -18 -29 -35 -50 -38 -47 -3 2 0 11 7 19 9 11 8 15 -4 20 -15 5
-27 -15 -58 -94 -4 -12 -6 -12 -6 2 -1 9 4 29 9 44 8 19 8 29 0 34 -7 5 -6 11
5 20 13 11 15 10 9 -4 -10 -27 5 -18 21 14 19 37 19 51 0 26 -19 -25 -19 -22
1 45 9 30 29 72 45 93 23 31 29 51 29 88 0 42 5 54 36 88 20 21 51 46 70 55
28 13 34 22 34 46 0 17 5 40 11 51 11 20 13 20 24 5 7 -10 18 -43 24 -75z
m-3394 49 c3 -5 2 -12 -3 -15 -5 -3 -9 1 -9 9 0 17 3 19 12 6z m95 -5 c0 -2
-7 -7 -16 -10 -8 -3 -12 -2 -9 4 6 10 25 14 25 6z m439 -10 c-2 -2 -20 -6 -39
-10 -25 -4 -31 -3 -20 4 14 9 69 15 59 6z m-609 -31 c0 -12 -19 -12 -23 0 -4
9 -1 12 9 8 7 -3 14 -7 14 -8z m80 5 c0 -5 -1 -10 -3 -10 -1 0 -17 -4 -35 -9
-20 -6 -32 -6 -32 0 0 5 12 9 28 9 21 0 24 2 12 10 -12 8 -11 10 8 10 12 0 22
-4 22 -10z m-325 -30 c3 -5 1 -10 -4 -10 -6 0 -11 5 -11 10 0 6 2 10 4 10 3 0
8 -4 11 -10z m2900 -125 c10 -38 18 -82 19 -97 0 -14 4 -24 9 -21 10 6 8 -37
-3 -62 l-9 -20 -1 20 c-4 49 -27 164 -55 265 -7 24 -7 24 8 5 8 -11 22 -51 32
-90z m-2915 69 c0 -8 -4 -14 -10 -14 -5 0 -10 -5 -10 -11 0 -6 7 -9 15 -5 8 3
15 1 15 -5 0 -7 -10 -9 -27 -4 -34 8 -58 28 -28 23 12 -2 20 3 21 12 2 28 4
31 14 25 6 -3 10 -13 10 -21z m34 -7 c7 -6 6 -7 -4 -4 -8 2 -16 12 -17 23 -2
13 -1 15 4 4 3 -8 11 -19 17 -23z m176 23 c0 -5 -2 -10 -4 -10 -3 0 -8 5 -11
10 -3 6 -1 10 4 10 6 0 11 -4 11 -10z m2291 -219 c48 -73 91 -155 104 -199 l7
-24 -20 20 c-28 28 -49 67 -30 57 7 -4 4 2 -8 12 -27 24 -65 85 -41 64 26 -21
21 -7 -29 69 -25 39 -50 68 -55 64 -5 -3 -8 0 -7 8 2 7 -3 12 -10 10 -8 -1
-11 2 -7 9 4 6 -8 27 -27 47 -70 76 -70 86 0 13 41 -42 96 -109 123 -150z
m-2381 199 c11 -7 6 -8 -17 -4 -31 6 -47 -8 -23 -19 6 -3 5 -4 -2 -3 -7 1 -14
10 -16 19 -4 19 33 23 58 7z m150 -10 c0 -5 -5 -10 -11 -10 -5 0 -7 5 -4 10 3
6 8 10 11 10 2 0 4 -4 4 -10z m3807 -10 c-3 -11 -1 -18 4 -14 19 11 8 -24 -23
-72 -18 -27 -44 -71 -58 -99 -42 -80 -81 -148 -102 -178 -11 -16 -18 -30 -16
-32 2 -3 22 22 43 55 21 32 42 57 46 55 4 -3 5 4 2 15 -4 13 -1 20 6 18 7 -2
22 24 35 57 19 51 29 64 68 85 25 14 53 33 62 43 10 9 22 14 28 11 15 -9 4
-134 -14 -170 -104 -203 -124 -231 -200 -282 -26 -18 -50 -38 -54 -44 -4 -7 8
-1 27 13 37 26 76 49 127 75 17 9 32 20 32 25 0 5 7 6 15 3 8 -4 15 -2 15 4 0
17 192 93 273 108 33 6 37 4 37 -15 0 -41 -85 -182 -121 -201 -37 -21 -18 -27
92 -29 61 -1 120 -6 131 -10 19 -7 18 -9 -15 -30 -20 -12 -42 -19 -47 -16 -7
4 -14 -2 -17 -14 -3 -12 -9 -22 -14 -22 -5 -1 -15 -2 -21 -3 -7 -1 -12 -8 -10
-15 2 -9 -3 -11 -15 -7 -9 4 -14 4 -10 0 4 -4 -1 -16 -10 -26 -15 -17 -15 -21
-3 -30 13 -8 13 -9 -1 -5 -9 3 -21 2 -27 -2 -6 -4 46 -17 116 -30 184 -34 206
-53 127 -112 -46 -35 -54 -47 -32 -46 42 1 110 -4 105 -8 -3 -3 -65 -14 -139
-25 -74 -11 -154 -24 -179 -29 -39 -9 -35 -10 30 -5 77 5 262 31 293 40 12 4
17 0 17 -15 0 -11 7 -26 15 -34 13 -13 13 -16 -1 -21 -8 -3 -13 -2 -10 2 2 4
1 13 -3 20 -5 9 -18 4 -46 -18 -21 -16 -56 -35 -79 -41 -67 -18 -126 -40 -139
-52 -12 -12 -50 -27 -172 -69 -112 -39 -257 -25 -372 35 l-42 22 89 -1 c50 -1
90 1 90 5 0 4 10 7 23 6 12 -1 27 2 33 7 7 5 29 10 50 12 21 2 40 9 42 15 2 6
-2 9 -10 7 -33 -10 -82 -15 -68 -7 8 5 35 12 60 16 25 4 47 9 50 12 4 5 -25 3
-150 -12 -19 -2 -3 4 35 15 39 10 61 19 50 20 -17 2 -16 3 5 10 36 12 11 12
-51 0 -29 -6 -57 -6 -61 -2 -5 5 -3 9 4 9 27 0 109 36 98 43 -17 10 5 17 84
25 41 5 71 4 75 -2 3 -5 26 -7 51 -4 l45 5 -40 7 -40 6 42 2 c23 0 45 -3 48
-9 3 -5 20 -10 38 -10 21 0 28 3 21 10 -6 6 -49 13 -95 17 -112 7 -230 -15
-324 -62 l-72 -36 -54 16 c-30 9 -65 20 -79 24 -19 6 -10 9 40 14 90 9 216 43
268 74 54 31 50 39 -9 16 -33 -12 -83 -17 -203 -19 l-159 -2 33 20 c18 11 41
20 51 21 10 1 16 4 14 7 -2 4 32 28 75 55 104 62 121 84 30 37 -65 -33 -79
-36 -168 -40 l-97 -3 55 29 c121 63 211 115 206 119 -3 3 -24 -4 -48 -16 -40
-20 -41 -20 -18 -2 15 12 19 21 11 21 -8 0 -3 8 12 20 14 11 32 17 40 14 8 -3
18 -1 22 5 3 7 0 8 -9 5 -9 -3 -16 -4 -16 -1 0 11 113 66 123 60 6 -3 7 -1 3
5 -4 7 -1 12 8 12 9 0 16 3 16 8 0 4 25 22 56 41 30 18 53 35 51 38 -3 2 -14
0 -25 -6 -11 -6 -29 -8 -39 -5 -13 4 -14 3 -5 -3 9 -7 6 -12 -13 -21 -14 -6
-25 -8 -25 -3 0 5 6 12 13 14 9 4 9 6 -1 6 -8 1 -16 -8 -19 -19 -6 -21 -60
-53 -74 -44 -5 3 -9 -2 -9 -10 0 -8 -4 -18 -10 -21 -5 -3 -8 0 -7 7 2 7 -1 3
-7 -10 -6 -12 -16 -20 -23 -18 -7 3 -18 0 -25 -7 -7 -7 -29 -17 -48 -24 -31
-11 -33 -11 -16 2 18 14 15 19 -9 16 -5 -1 -2 5 8 12 9 8 17 17 17 21 0 15
-23 3 -73 -38 -58 -47 -108 -76 -129 -76 -7 1 2 7 20 15 30 13 47 40 18 29
-25 -10 -12 26 20 52 17 14 -5 5 -51 -21 -44 -25 -84 -45 -90 -44 -5 0 10 11
35 24 45 24 45 29 3 25 -13 -1 -23 4 -23 10 0 7 7 10 15 7 8 -4 17 -1 21 5 4
7 3 8 -4 4 -15 -9 -15 -6 3 38 17 41 13 44 -23 16 -20 -16 -27 -18 -34 -8 -6
10 -8 10 -8 1 0 -7 -7 -10 -15 -7 -10 4 -15 0 -15 -12 -1 -11 -8 -30 -16 -44
-10 -17 -13 -18 -8 -5 3 11 9 31 12 45 2 14 8 30 12 35 4 6 12 25 19 44 6 19
46 90 88 159 90 144 136 189 259 252 47 24 97 52 112 62 35 23 46 23 39 -2z
m-3927 -10 c0 -5 -4 -10 -9 -10 -6 0 -13 5 -16 10 -3 6 1 10 9 10 9 0 16 -4
16 -10z m1866 -35 c10 -20 36 -49 56 -66 44 -35 47 -45 16 -54 -25 -8 -88 -63
-88 -78 0 -4 9 -6 20 -2 33 10 124 23 135 19 6 -3 28 -34 48 -69 22 -38 49
-71 66 -80 16 -8 38 -30 50 -48 25 -40 124 -136 167 -162 18 -10 41 -35 52
-56 l20 -37 -52 18 c-83 28 -134 58 -186 108 -38 37 -52 59 -65 107 -9 33 -18
66 -20 73 -3 6 -17 12 -33 12 -17 0 -44 12 -66 29 -20 16 -51 32 -68 35 -61
11 -101 61 -138 173 l-18 55 22 -5 c11 -3 31 -8 44 -11 26 -6 27 0 7 34 -18
32 -18 40 -2 40 8 0 22 -16 33 -35z m-1821 -46 c11 -16 1 -19 -13 -3 -7 8 -8
14 -3 14 5 0 13 -5 16 -11z m3196 -50 c-5 -13 -10 -19 -10 -12 -1 15 10 45 15
40 3 -2 0 -15 -5 -28z m76 9 c-3 -8 -6 -5 -6 6 -1 11 2 17 5 13 3 -3 4 -12 1
-19z m-1568 -36 c1 -7 -3 -10 -9 -7 -5 3 -10 18 -9 33 0 24 1 25 9 7 5 -11 9
-26 9 -33z m-11 -17 c42 -24 68 -45 58 -45 -13 0 10 -29 80 -98 54 -54 107
-101 117 -105 19 -7 33 -34 24 -44 -4 -3 -25 2 -49 12 -24 9 -52 19 -63 21
-77 14 -174 37 -182 43 -32 22 -123 213 -123 257 0 26 49 11 138 -41z m808
-12 c8 -32 13 -69 13 -83 -1 -14 -7 6 -14 43 -8 37 -17 78 -21 90 -3 12 -3 19
1 15 4 -4 14 -33 21 -65z m760 12 c-4 -19 -18 -58 -32 -87 -23 -51 -24 -42 -2
32 28 91 46 122 34 55z m-1307 -24 c-13 -4 -15 -2 -23 29 l-7 25 20 -25 c11
-14 15 -27 10 -29z m1232 -44 c-10 -9 -11 -8 -5 6 3 10 9 15 12 12 3 -3 0 -11
-7 -18z m-384 -59 c-2 -13 -4 -3 -4 22 0 25 2 35 4 23 2 -13 2 -33 0 -45z
m363 5 c-11 -17 -11 -17 -6 0 3 10 6 24 7 30 0 9 2 9 5 0 3 -7 0 -20 -6 -30z
m-643 -25 c-3 -8 -6 -5 -6 6 -1 11 2 17 5 13 3 -3 4 -12 1 -19z m274 -82 c1
-37 -2 -70 -5 -73 -3 -4 -6 29 -6 72 0 43 2 76 5 73 3 -3 6 -36 6 -72z m342
39 c-3 -9 -8 -14 -10 -11 -3 3 -2 9 2 15 9 16 15 13 8 -4z m178 -18 c-10 -9
-11 -8 -5 6 3 10 9 15 12 12 3 -3 0 -11 -7 -18z m-732 -51 c26 -41 27 -57 3
-25 -19 24 -35 59 -28 59 3 0 14 -15 25 -34z m611 -38 l-5 -63 -3 49 c-3 43 2
76 10 76 2 0 1 -28 -2 -62z m-20 48 c0 -2 -8 -10 -17 -17 -16 -13 -17 -12 -4
4 13 16 21 21 21 13z m1100 -44 c0 -7 -4 -10 -10 -7 -5 3 -10 16 -10 28 0 18
2 19 10 7 5 -8 10 -21 10 -28z m-2407 -53 c133 -68 301 -199 333 -261 l15 -29
-52 7 c-47 6 -52 5 -46 -10 6 -15 3 -14 -20 4 -16 11 -48 34 -72 51 -25 16
-41 29 -35 30 22 1 -70 28 -120 34 -41 5 -59 13 -67 27 -15 28 -6 32 31 13 44
-23 48 -13 8 18 -57 45 -144 130 -115 113 85 -50 84 -50 47 -16 -35 32 -35 32
-5 17 17 -8 48 -22 70 -31 36 -14 38 -14 20 0 -11 9 -49 31 -85 49 -36 18 -74
40 -85 49 -27 21 96 -24 178 -65z m1490 42 c-2 -10 -22 -28 -44 -40 -30 -17
-38 -19 -33 -7 3 9 12 16 20 16 8 0 24 11 36 25 26 30 28 30 21 6z m-863 -65
c0 -20 0 -20 -15 0 -8 10 -14 30 -14 44 l0 25 14 -25 c8 -14 14 -34 15 -44z
m1687 49 c0 -8 -4 -12 -9 -9 -5 3 -6 10 -3 15 9 13 12 11 12 -6z m-1384 -10
c-3 -9 -8 -14 -10 -11 -3 3 -2 9 2 15 9 16 15 13 8 -4z m130 -10 c-3 -9 -8
-14 -10 -11 -3 3 -2 9 2 15 9 16 15 13 8 -4z m38 -8 c-10 -9 -11 -8 -5 6 3 10
9 15 12 12 3 -3 0 -11 -7 -18z m-835 -59 c12 -12 36 -45 55 -72 19 -26 40 -57
48 -67 12 -17 12 -19 0 -14 -8 3 -29 27 -47 53 -40 58 -72 93 -98 108 -10 6
-19 15 -19 20 0 5 -4 16 -9 23 -13 20 43 -21 70 -51z m667 37 c-3 -9 -8 -14
-10 -11 -3 3 -2 9 2 15 9 16 15 13 8 -4z m281 -41 c3 -8 2 -12 -4 -9 -6 3 -10
10 -10 16 0 14 7 11 14 -7z m-180 -40 c3 -8 2 -12 -4 -9 -6 3 -10 10 -10 16 0
14 7 11 14 -7z m264 -19 c-3 -3 -9 2 -12 12 -6 14 -5 15 5 6 7 -7 10 -15 7
-18z m-188 -17 c0 -6 -6 -5 -15 2 -8 7 -15 14 -15 16 0 2 7 1 15 -2 8 -4 15
-11 15 -16z m-232 -13 c-3 -3 -9 2 -12 12 -6 14 -5 15 5 6 7 -7 10 -15 7 -18z
m162 -15 c0 -5 -2 -10 -4 -10 -3 0 -8 5 -11 10 -3 6 -1 10 4 10 6 0 11 -4 11
-10z m80 0 c0 -5 -2 -10 -4 -10 -3 0 -8 5 -11 10 -3 6 -1 10 4 10 6 0 11 -4
11 -10z m1233 -15 c-3 -9 -8 -14 -10 -11 -3 3 -2 9 2 15 9 16 15 13 8 -4z
m-1453 -36 c15 -28 5 -23 -15 7 -9 15 -12 23 -6 20 6 -4 16 -16 21 -27z m2839
2 c-6 -2 -18 4 -27 13 -15 15 -15 15 10 4 15 -7 23 -15 17 -17z m-2770 -35 c0
-6 -5 -1 -11 12 -6 12 -15 22 -20 22 -4 0 -8 6 -8 13 1 6 10 1 20 -12 11 -13
20 -28 19 -35z m286 44 c3 -5 1 -10 -4 -10 -6 0 -11 5 -11 10 0 6 2 10 4 10 3
0 8 -4 11 -10z m-159 -20 c0 -12 -4 -16 -9 -11 -5 5 -6 14 -3 20 10 15 12 14
12 -9z m323 6 c9 -11 9 -16 -1 -22 -7 -4 -10 -4 -6 1 4 4 3 14 -3 22 -6 7 -9
13 -6 13 2 0 10 -6 16 -14z m-399 0 c0 -3 -4 -8 -10 -11 -5 -3 -10 -1 -10 4 0
6 5 11 10 11 6 0 10 -2 10 -4z m1377 -2 c-3 -3 -12 -4 -19 -1 -8 3 -5 6 6 6
11 1 17 -2 13 -5z m-1247 -25 c0 -6 -4 -7 -10 -4 -5 3 -10 11 -10 16 0 6 5 7
10 4 6 -3 10 -11 10 -16z m340 -8 c0 -6 -4 -12 -8 -15 -5 -3 -9 1 -9 9 0 8 4
15 9 15 4 0 8 -4 8 -9z m-610 -16 c0 -8 -4 -15 -8 -15 -5 0 -9 7 -9 15 0 8 4
15 9 15 4 0 8 -7 8 -15z m-2141 -23 c-5 -15 -20 -70 -33 -122 l-24 -95 -1 100
c-1 105 2 115 34 133 31 17 35 14 24 -16z m2663 -4 c-8 -8 -9 -4 -5 13 4 13 8
18 11 10 2 -7 -1 -18 -6 -23z m2178 12 c0 -5 -2 -10 -4 -10 -3 0 -8 5 -11 10
-3 6 -1 10 4 10 6 0 11 -4 11 -10z m-2789 -17 c13 -16 12 -17 -3 -4 -17 13
-22 21 -14 21 2 0 10 -8 17 -17z m-76 -13 c3 -6 -1 -7 -9 -4 -18 7 -21 14 -7
14 6 0 13 -4 16 -10z m-434 -17 c13 -16 12 -17 -3 -4 -17 13 -22 21 -14 21 2
0 10 -8 17 -17z m3134 7 c3 -5 1 -10 -4 -10 -6 0 -11 5 -11 10 0 6 2 10 4 10
3 0 8 -4 11 -10z m-1878 -22 c-3 -8 -6 -5 -6 6 -1 11 2 17 5 13 3 -3 4 -12 1
-19z m2013 -13 c0 -5 -5 -3 -10 5 -5 8 -10 20 -10 25 0 6 5 3 10 -5 5 -8 10
-19 10 -25z m-2765 15 c3 -6 -1 -7 -9 -4 -18 7 -21 14 -7 14 6 0 13 -4 16 -10z
m692 -52 c-3 -8 -6 -5 -6 6 -1 11 2 17 5 13 3 -3 4 -12 1 -19z m1123 12 c0 -5
-5 -10 -11 -10 -5 0 -7 5 -4 10 3 6 8 10 11 10 2 0 4 -4 4 -10z m-2005 -30 c3
-6 -1 -7 -9 -4 -18 7 -21 14 -7 14 6 0 13 -4 16 -10z m923 -25 c-3 -3 -9 2
-12 12 -6 14 -5 15 5 6 7 -7 10 -15 7 -18z m1799 19 c-3 -3 -12 -4 -19 -1 -8
3 -5 6 6 6 11 1 17 -2 13 -5z m-707 -74 c0 -5 -5 -10 -11 -10 -5 0 -7 5 -4 10
3 6 8 10 11 10 2 0 4 -4 4 -10z m-1010 -10 c0 -5 -5 -10 -11 -10 -5 0 -7 5 -4
10 3 6 8 10 11 10 2 0 4 -4 4 -10z m922 -82 c-9 -9 -12 -7 -12 12 0 19 3 21
12 12 9 -9 9 -15 0 -24z m-2275 16 c-3 -3 -12 -4 -19 -1 -8 3 -5 6 6 6 11 1
17 -2 13 -5z m3518 -4 c-3 -5 -12 -10 -18 -10 -7 0 -6 4 3 10 19 12 23 12 15
0z m-2165 -15 c-7 -9 -15 -13 -19 -10 -3 3 1 10 9 15 21 14 24 12 10 -5z m830
5 c0 -5 -2 -10 -4 -10 -3 0 -8 5 -11 10 -3 6 -1 10 4 10 6 0 11 -4 11 -10z
m-37 -17 c-7 -2 -19 -2 -25 0 -7 3 -2 5 12 5 14 0 19 -2 13 -5z m-2703 -13
c24 -8 24 -8 -5 -9 -16 0 -37 4 -45 9 -12 8 -11 10 5 9 11 -1 31 -5 45 -9z
m2751 -8 c-7 -2 -18 1 -23 6 -8 8 -4 9 13 5 13 -4 18 -8 10 -11z m106 12 c-3
-3 -12 -4 -19 -1 -8 3 -5 6 6 6 11 1 17 -2 13 -5z m-137 -24 c21 -7 22 -8 5
-10 -11 -1 10 -12 46 -25 84 -29 106 -41 119 -64 8 -16 7 -18 -9 -14 -12 3
-17 11 -14 19 10 27 -38 11 -176 -59 l-84 -42 -146 1 c-131 1 -154 3 -224 27
-77 27 -157 63 -157 72 0 2 10 1 23 -4 33 -13 193 -13 257 0 50 10 130 39 205
74 71 33 110 39 155 25z m-765 -19 c-3 -6 -14 -10 -23 -10 -15 1 -15 2 1 6 9
2 17 9 17 15 0 6 3 9 6 5 3 -3 3 -10 -1 -16z m-85 5 c0 -2 -7 -7 -16 -10 -8
-3 -12 -2 -9 4 6 10 25 14 25 6z m30 -10 c0 -2 -7 -7 -16 -10 -8 -3 -12 -2 -9
4 6 10 25 14 25 6z m1018 -61 c-3 -3 -9 2 -12 12 -6 14 -5 15 5 6 7 -7 10 -15
7 -18z m-775 -2 c-7 -2 -19 -2 -25 0 -7 3 -2 5 12 5 14 0 19 -2 13 -5z m-2819
-12 c3 -5 34 -12 68 -16 35 -4 99 -17 143 -30 44 -12 107 -26 140 -30 33 -3
77 -10 98 -15 21 -4 37 -4 37 1 0 5 -3 9 -7 9 -5 0 -19 10 -33 21 -25 20 -25
20 -1 9 13 -7 50 -36 82 -66 32 -30 66 -54 75 -54 8 0 13 -4 9 -9 -3 -5 -1
-13 5 -16 8 -5 7 -11 -1 -21 -14 -17 -29 -18 -29 -3 0 5 4 8 9 4 16 -9 20 9 5
23 -8 7 -14 9 -14 5 0 -4 -4 -1 -10 7 -5 8 -12 11 -15 8 -4 -4 -3 -12 1 -19
16 -26 12 -58 -9 -76 l-22 -18 19 23 c11 12 16 25 12 29 -3 4 -13 -3 -21 -14
-15 -21 -55 -28 -55 -10 0 5 8 6 18 3 11 -3 24 4 35 20 17 23 17 27 3 49 -10
15 -12 26 -6 30 6 3 10 1 10 -6 0 -7 3 -10 6 -6 3 3 3 11 -1 17 -5 8 -10 8
-20 0 -10 -9 -11 -19 -4 -38 9 -25 8 -26 -6 -8 -17 23 -20 14 -5 -15 11 -20
-3 -28 -15 -9 -3 6 -11 10 -16 10 -6 0 -7 -5 -3 -11 8 -13 -35 -3 -50 12 -6 5
-17 9 -25 9 -12 0 -11 -3 2 -18 10 -10 14 -21 11 -25 -9 -8 -44 15 -44 30 0 6
-5 15 -11 18 -7 5 -9 -6 -5 -32 3 -21 3 -30 0 -20 -3 9 -10 17 -16 17 -5 0 -7
7 -4 16 4 9 1 23 -6 32 -11 13 -9 14 12 7 20 -6 23 -5 13 5 -16 17 -47 4 -39
-16 7 -18 -22 -52 -32 -38 -4 5 -15 10 -26 12 -13 3 -17 -1 -13 -11 3 -8 -1
-24 -9 -35 -12 -17 -12 -22 1 -32 8 -7 26 -10 40 -8 20 4 23 3 14 -8 -8 -10
-8 -14 0 -14 6 0 11 -7 11 -16 0 -14 -7 -16 -45 -11 -55 8 -58 -3 -8 -24 l38
-17 -35 -21 c-19 -11 -49 -21 -66 -21 -37 0 -48 -9 -33 -27 14 -16 -6 -18 -48
-3 -27 10 -27 9 7 -20 19 -17 38 -30 42 -30 4 0 5 -6 2 -14 -3 -7 2 -21 11
-30 15 -15 14 -16 -20 -16 -20 0 -34 -4 -30 -9 7 -12 -28 -23 -49 -15 -20 7
-20 -3 -1 -36 16 -28 19 -66 6 -74 -5 -3 -38 17 -75 44 -36 27 -66 47 -66 44
0 -12 30 -61 44 -73 23 -19 20 -34 -6 -28 -12 4 -28 1 -35 -5 -19 -15 -59 14
-91 67 -36 60 -46 56 -21 -7 24 -61 20 -123 -11 -160 -18 -22 -19 -23 -25 -3
-4 11 -10 29 -15 40 -8 18 -9 18 -10 -5 -1 -14 -5 -34 -9 -44 -7 -18 -9 -17
-27 12 l-19 32 -18 -22 c-18 -23 -18 -22 -13 42 12 156 31 215 62 189 9 -7 15
-5 23 8 10 17 12 17 30 -5 l20 -23 3 33 c2 28 7 32 26 30 12 -2 22 2 22 9 0
20 28 -10 32 -33 2 -12 9 -23 16 -26 11 -3 12 0 4 14 -5 11 -12 34 -15 52 -5
24 -3 32 8 32 8 0 15 9 15 20 0 14 7 20 21 20 17 0 20 4 15 24 -5 20 -2 24 20
24 36 0 43 12 17 29 -13 9 -23 19 -23 24 0 5 10 9 23 9 l22 1 -24 19 -23 20
42 0 43 0 -34 23 c-26 18 -34 30 -33 53 0 16 -6 34 -13 39 -10 8 -3 10 27 7
57 -6 75 14 21 23 -22 4 -43 10 -46 14 -2 4 27 23 66 41 77 36 84 64 8 31 -37
-17 -55 -19 -97 -12 -56 9 -80 21 -42 21 l23 0 -27 23 c-17 15 -23 26 -17 32
13 13 98 18 105 6z m1168 -42 c17 -17 15 -19 -34 -43 -34 -17 -45 -26 -31 -26
12 0 25 -5 29 -12 5 -8 -19 -10 -97 -5 -62 4 -98 3 -90 -2 19 -12 -32 -19
-205 -27 -124 -6 -142 -4 -157 11 -24 24 -21 33 9 27 19 -3 25 -1 20 7 -4 6
-15 12 -24 12 -29 2 70 17 117 18 41 1 43 2 26 15 -18 13 -16 15 30 20 28 4
70 11 95 16 25 5 70 9 101 8 30 0 64 4 73 9 24 13 116 -5 138 -28z m2348 14
c-14 -3 -29 -8 -35 -13 -5 -4 -19 -3 -30 1 -18 9 -18 9 2 5 13 -2 26 0 29 5 3
5 17 8 32 8 l27 -2 -25 -4z m-945 -23 c16 -7 14 -8 -12 -7 -18 1 -33 5 -33 10
0 9 19 8 45 -3z m827 -12 c-12 -15 -4 -68 10 -68 6 0 28 -14 50 -32 34 -27 39
-35 34 -60 -3 -18 -1 -28 6 -28 29 0 -8 -14 -64 -25 -96 -18 -268 -4 -403 32
-111 29 -294 129 -273 148 2 1 37 -12 79 -31 98 -43 233 -68 296 -54 24 6 62
19 83 30 53 27 120 27 127 0 8 -31 21 -24 32 17 9 31 8 39 -5 46 -14 8 -13 11
7 22 31 17 33 17 21 3z m-2204 -110 c10 -9 7 -17 -15 -41 l-28 -30 28 5 c15 3
27 2 27 -3 0 -4 -17 -11 -37 -14 -21 -3 -68 -18 -105 -32 -67 -26 -71 -26
-243 -20 -157 6 -181 5 -228 -12 -67 -25 -117 -32 -142 -21 l-20 9 20 0 c24 1
78 35 69 44 -3 3 3 3 15 0 13 -3 28 3 44 21 14 14 41 40 62 56 21 17 33 30 27
30 -6 0 -14 -4 -17 -10 -9 -15 -25 -12 -25 4 0 11 22 13 113 9 79 -3 131 0
177 11 72 17 254 13 278 -6z m1307 -38 c3 -6 -1 -7 -9 -4 -18 7 -21 14 -7 14
6 0 13 -4 16 -10z m321 -11 c12 -20 129 -68 206 -84 40 -9 127 -19 193 -22
114 -6 122 -7 158 -35 21 -17 67 -42 103 -58 102 -43 110 -59 30 -62 -32 -2
-50 2 -57 12 -9 12 -10 12 -5 -3 3 -11 1 -17 -7 -16 -6 2 -37 -3 -68 -10 -56
-13 -194 -11 -249 4 -23 6 -23 5 5 -13 17 -10 39 -29 50 -41 17 -20 25 -21 82
-15 l62 6 81 -81 c44 -45 80 -85 80 -90 0 -23 -137 21 -155 49 -3 5 -16 15
-28 22 -21 11 -21 11 -4 -13 9 -13 24 -37 33 -54 9 -16 26 -41 39 -55 12 -14
30 -37 40 -52 l17 -27 -39 5 c-21 3 -63 14 -93 25 -30 10 -84 24 -120 30 -36
6 -83 14 -105 18 -43 8 -212 117 -278 180 -21 20 -50 59 -64 86 -14 28 -34 61
-44 74 -53 67 1 66 149 -3 100 -47 95 -35 -10 20 -33 18 -56 34 -51 36 4 3 34
5 65 4 32 -1 57 1 55 4 -1 3 -36 37 -77 75 -78 72 -94 93 -66 82 10 -4 15 -3
11 3 -4 6 7 10 24 10 16 0 33 -5 37 -11z m-3724 -24 c10 6 10 5 1 -5 -10 -11
-15 -11 -28 0 -8 7 -15 18 -15 24 0 6 7 3 15 -8 8 -11 19 -15 27 -11z m-177
-15 c-4 -12 -9 -19 -12 -17 -3 3 -2 15 2 27 4 12 9 19 12 17 3 -3 2 -15 -2
-27z m1360 20 c3 -5 -1 -10 -10 -10 -9 0 -13 5 -10 10 3 6 8 10 10 10 2 0 7
-4 10 -10z m59 -11 c4 -4 -4 -6 -18 -6 -21 0 -24 2 -15 13 7 8 15 11 18 7 3
-4 10 -11 15 -14z m114 7 c-2 -1 -12 -8 -22 -16 -18 -14 -18 -14 -6 7 8 12 18
19 23 16 4 -3 7 -6 5 -7z m2092 0 c-7 -7 -13 -7 -20 0 -6 6 -3 10 10 10 13 0
16 -4 10 -10z m-3566 -25 c4 -5 -3 -7 -14 -4 -23 6 -26 13 -6 13 8 0 17 -4 20
-9z m1311 -1 c6 -1 1 -5 -10 -9 -21 -9 -35 -5 -35 9 0 4 8 7 18 5 9 -2 22 -4
27 -5z m920 -80 c-36 -51 -37 -64 -3 -33 18 16 20 15 40 -5 19 -18 20 -25 10
-44 -19 -37 -32 -88 -21 -88 5 0 9 4 9 9 0 11 30 19 48 14 6 -3 12 -11 12 -19
0 -9 5 -12 13 -8 7 4 9 3 4 -2 -5 -5 -14 -9 -20 -9 -5 0 -12 -6 -15 -14 -3 -9
0 -11 8 -6 9 5 11 4 6 -4 -4 -6 -11 -9 -16 -6 -12 7 -20 -8 -12 -22 5 -8 19
-5 46 8 49 23 52 24 35 2 -11 -15 -11 -16 1 -5 20 18 38 15 45 -8 4 -11 11
-18 16 -15 5 4 9 -5 9 -19 0 -14 4 -26 10 -26 23 0 50 -45 50 -83 l0 -40 19
22 19 22 7 -21 c4 -14 1 -28 -11 -41 -28 -31 0 -22 31 11 27 28 30 29 47 13
16 -14 18 -27 14 -68 l-5 -50 12 50 13 50 7 -39 c9 -58 -2 -123 -33 -191 -16
-33 -39 -109 -51 -169 -22 -106 -24 -109 -67 -145 -27 -22 -57 -61 -78 -103
-19 -38 -36 -68 -39 -68 -2 0 3 19 11 43 13 34 14 70 9 192 l-7 150 -54 -53
c-43 -41 -56 -63 -67 -105 -14 -56 -20 -61 -127 -104 -36 -14 -47 -22 -32 -22
12 -1 45 11 73 25 52 26 66 26 56 1 -11 -28 -134 -48 -167 -27 -12 8 -12 10
-1 10 7 0 40 12 72 26 51 23 57 29 47 42 -7 9 -8 13 -2 9 6 -3 11 0 11 8 0 18
1 18 -34 5 l-28 -11 30 26 30 26 -40 -17 c-87 -35 -145 -52 -145 -43 0 5 14
39 30 76 17 36 30 70 30 75 0 5 14 29 30 53 17 24 30 48 30 53 0 15 43 48 92
70 25 12 49 26 53 32 15 25 -120 -54 -179 -105 -35 -29 -67 -51 -70 -48 -3 4
-6 0 -6 -7 0 -7 -3 -11 -6 -7 -6 5 7 30 64 127 12 20 10 19 -11 -5 -15 -16
-26 -33 -27 -36 0 -4 -9 -9 -20 -12 -17 -4 -20 0 -20 32 0 48 31 139 64 188
15 21 67 80 118 131 50 51 88 95 84 99 -7 8 -226 -209 -220 -218 9 -16 -180
-149 -193 -135 -2 2 5 23 17 45 11 23 18 46 15 52 -4 5 -1 18 6 27 10 12 6 11
-10 -3 -13 -11 -30 -35 -38 -52 -17 -42 -24 -42 -16 -1 4 22 3 29 -6 24 -6 -4
-9 -12 -6 -17 4 -5 1 -9 -4 -9 -42 0 36 88 105 118 66 30 176 94 170 100 -2 2
-26 -7 -53 -21 -26 -13 -70 -30 -98 -37 -54 -14 -121 -44 -145 -65 -8 -8 -17
-13 -20 -12 -3 0 -29 -25 -59 -56 -30 -31 -58 -57 -63 -57 -5 0 4 11 19 26
l28 25 -33 -16 -33 -16 18 27 c17 27 17 27 -4 16 -12 -7 -24 -17 -26 -24 -3
-7 -6 -8 -6 -3 -1 14 79 116 211 266 93 107 117 129 135 124 24 -6 139 28 167
50 25 19 14 19 -48 0 -27 -8 -93 -19 -147 -24 -73 -7 -105 -15 -124 -29 -13
-11 -21 -23 -17 -27 4 -5 -1 -5 -10 -2 -10 3 -17 3 -15 -2 1 -5 -9 -18 -23
-31 -21 -18 -22 -21 -5 -15 16 5 17 4 8 -6 -9 -9 -16 -9 -26 -1 -8 7 -17 9
-20 5 -4 -3 -19 -7 -34 -8 -16 -2 -37 -6 -48 -10 -11 -4 -5 2 12 14 21 13 31
26 27 36 -4 8 -2 15 2 15 5 0 23 13 40 29 53 50 182 122 239 134 30 6 55 15
55 20 0 4 4 6 8 3 5 -3 55 14 112 37 100 41 105 42 122 25 17 -17 17 -20 -17
-68z m-860 68 c14 -6 25 -15 25 -20 0 -7 -31 8 -59 29 -10 7 10 2 34 -9z
m2213 -13 c-3 -3 -9 2 -12 12 -6 14 -5 15 5 6 7 -7 10 -15 7 -18z m-2058 11
c0 -3 -4 -8 -10 -11 -5 -3 -10 -1 -10 4 0 6 5 11 10 11 6 0 10 -2 10 -4z
m3001 -11 c11 6 11 5 2 -5 -12 -14 -33 -6 -33 13 0 8 3 7 9 -2 5 -8 14 -10 22
-6z m-746 -35 c21 -22 37 -40 34 -40 -3 0 -23 18 -44 40 -21 22 -37 40 -34 40
3 0 23 -18 44 -40z m-3570 20 c3 -5 1 -10 -4 -10 -6 0 -11 5 -11 10 0 6 2 10
4 10 3 0 8 -4 11 -10z m1508 -17 c-13 -2 -35 -2 -50 0 -16 2 -5 4 22 4 28 0
40 -2 28 -4z m73 -8 c-1 -8 -5 -17 -8 -21 -5 -4 -4 16 1 34 3 9 9 -1 7 -13z
m72 -4 c10 -6 8 -10 -9 -14 -13 -4 -25 -4 -28 -2 -2 3 2 5 10 5 11 0 11 2 -1
10 -13 9 -13 10 0 10 8 0 21 -4 28 -9z m-1450 -36 c75 -64 136 -227 130 -346
l-3 -61 -37 -3 c-33 -2 -37 1 -42 28 -3 16 -6 42 -6 58 l0 29 -55 -35 c-30
-19 -57 -35 -60 -35 -14 0 -2 24 28 52 27 26 29 29 10 23 -30 -8 -31 16 -2 57
l22 30 -21 20 c-20 20 -22 20 -54 5 -18 -9 -34 -14 -36 -13 -7 8 72 138 95
156 l26 20 -40 0 c-32 0 -42 4 -46 20 -5 19 5 28 34 29 8 1 34 -15 57 -34z
m1078 3 c4 -7 3 -8 -4 -4 -13 8 -42 -5 -66 -30 -9 -8 -16 -11 -16 -6 0 10 58
51 72 52 4 0 10 -5 14 -12z m379 -7 c-6 -5 -23 -12 -40 -15 l-30 -6 30 14 c35
18 54 20 40 7z m1580 -39 c-3 -3 -11 0 -18 7 -9 10 -8 11 6 5 10 -3 15 -9 12
-12z m-145 -72 c6 -11 8 -20 6 -20 -3 0 -10 9 -16 20 -6 11 -8 20 -6 20 3 0
10 -9 16 -20z m50 0 c0 -5 -2 -10 -4 -10 -3 0 -8 5 -11 10 -3 6 -1 10 4 10 6
0 11 -4 11 -10z m287 -32 c16 -7 47 -33 68 -57 71 -78 124 -112 367 -231 63
-31 67 -35 83 -86 9 -28 29 -72 45 -97 16 -25 33 -61 38 -80 l10 -35 -101 44
c-72 32 -109 54 -132 81 -35 40 -38 55 -8 33 10 -7 2 2 -17 20 -51 46 -90 73
-90 61 0 -5 5 -13 10 -16 6 -3 10 -15 10 -26 0 -11 12 -32 28 -46 25 -24 25
-25 3 -13 -22 11 -23 11 -16 -6 4 -11 11 -62 16 -114 4 -52 11 -113 15 -134
l7 -39 -40 44 c-45 49 -73 98 -73 127 0 20 -81 102 -101 102 -25 0 -131 97
-168 154 -37 59 -87 193 -80 215 4 12 63 -26 140 -89 l43 -35 -24 33 c-14 18
-48 51 -77 74 -29 22 -53 42 -53 43 0 2 21 -7 48 -20 26 -13 49 -19 50 -14 2
5 -8 30 -23 54 -14 25 -23 50 -20 55 8 12 7 13 42 -2z m-223 -14 c3 -8 2 -12
-4 -9 -6 3 -10 10 -10 16 0 14 7 11 14 -7z m-2819 -18 c19 -7 19 -8 2 -17 -9
-6 -15 -15 -11 -21 4 -6 10 -5 15 3 11 17 12 -13 3 -49 -6 -20 -9 -17 -31 28
-14 29 -22 59 -18 68 4 10 9 12 13 6 4 -6 16 -14 27 -18z m2582 -32 c2 -13 1
-15 -4 -4 -3 8 -11 19 -17 23 -7 6 -6 7 4 4 8 -2 16 -12 17 -23z m298 -124
c10 -11 16 -20 13 -20 -3 0 -13 9 -23 20 -10 11 -16 20 -13 20 3 0 13 -9 23
-20z m22 -91 c18 -35 32 -68 32 -72 1 -4 -15 5 -34 20 -33 26 -44 47 -65 116
-9 28 -8 28 13 15 12 -8 36 -43 54 -79z m-93 -59 c23 -30 82 -118 130 -195 85
-134 224 -326 284 -392 17 -17 27 -34 24 -37 -14 -14 -43 -2 -109 44 -53 37
-72 46 -75 35 -5 -25 -51 5 -59 40 -23 99 -20 92 -30 68 -5 -13 -4 -35 3 -53
17 -51 2 -44 -21 10 -12 27 -24 50 -26 50 -5 0 3 -21 45 -115 27 -60 31 -65
26 -32 -3 20 -1 35 4 32 5 -3 8 -32 8 -65 -1 -68 -3 -68 -77 -6 -23 19 -50 38
-60 41 -35 11 -178 185 -229 279 -61 111 -76 172 -73 294 1 41 21 62 21 22 0
-11 5 -20 10 -20 6 0 9 3 9 8 -6 35 7 30 52 -18 28 -30 42 -41 32 -25 -35 54
-35 55 -16 48 16 -6 17 -5 3 13 -8 10 1 6 19 -11 l32 -30 -10 28 c-14 36 -14
60 -1 52 6 -3 10 -1 10 6 0 18 25 -7 74 -71z m-638 25 c3 -8 -6 -34 -20 -57
-59 -99 -75 -143 -80 -216 -3 -40 -12 -92 -20 -115 -8 -23 -22 -102 -31 -175
-8 -74 -20 -143 -26 -153 -21 -40 20 -19 63 32 23 28 52 56 63 61 11 6 -7 -18
-40 -53 -33 -36 -71 -81 -85 -102 -28 -41 -60 -63 -36 -24 9 14 18 80 26 177
24 328 55 467 130 589 33 53 47 62 56 36z m53 -12 c-11 -15 -11 -16 1 -5 22
19 40 14 51 -15 l11 -28 14 30 c8 19 13 23 14 13 0 -19 15 -24 25 -8 11 18 33
-2 50 -46 19 -50 64 -263 66 -309 0 -16 3 -24 6 -17 3 7 -1 52 -7 100 -18 131
-18 132 -8 126 11 -7 -1 46 -15 64 -6 8 -6 12 3 12 6 0 17 -13 23 -30 6 -16
15 -30 19 -30 11 0 22 49 23 102 0 27 1 48 2 48 1 0 9 -12 17 -27 8 -17 16
-73 19 -138 4 -99 10 -124 55 -253 27 -79 64 -165 80 -192 l31 -49 -29 -87
c-15 -47 -33 -91 -40 -97 -8 -9 -9 -5 0 17 6 16 9 31 6 33 -2 3 -7 -5 -11 -16
-3 -12 -11 -19 -16 -16 -5 4 -13 -4 -18 -17 -7 -17 -10 -5 -10 50 -1 56 -7 84
-26 124 -23 47 -25 64 -25 187 -1 130 -2 135 -17 107 -13 -25 -15 -54 -10
-175 l5 -146 -18 105 c-10 58 -19 123 -20 145 -1 22 -5 31 -7 21 -6 -23 11
-166 38 -320 10 -61 17 -112 15 -114 -2 -2 0 -17 4 -34 16 -53 -17 -13 -66 81
-25 48 -42 75 -39 61 l6 -25 -20 25 c-11 14 -39 73 -62 133 -23 59 -44 107
-46 107 -18 0 -74 -59 -87 -91 -20 -49 -33 -51 -28 -3 2 19 -6 78 -19 129 -22
93 -22 95 -5 147 17 50 17 56 2 101 -24 70 -20 109 15 169 17 29 36 59 41 66
16 19 23 5 7 -15z m320 -13 c11 -24 11 -24 -3 -6 -9 11 -16 24 -16 30 0 12 5
7 19 -24z m322 5 c12 -2 33 -14 46 -26 12 -13 23 -19 23 -14 0 16 52 -40 70
-76 18 -34 34 -47 142 -116 26 -17 45 -33 41 -37 -3 -3 0 -6 7 -6 16 0 9 -115
-10 -151 l-13 -24 -15 35 c-20 51 -113 210 -122 210 -5 0 -17 3 -27 6 -10 3
-14 2 -8 -3 6 -4 11 -13 12 -19 3 -15 166 -270 191 -299 22 -25 42 -59 42 -71
0 -10 -84 99 -125 161 -18 28 -44 64 -59 80 -14 17 -45 62 -68 100 -23 39 -59
93 -80 122 -21 29 -38 55 -38 58 0 4 -14 27 -32 53 -18 26 -25 41 -16 34 9 -7
26 -15 39 -17z m2319 -5 c0 -5 -5 -10 -11 -10 -5 0 -7 5 -4 10 3 6 8 10 11 10
2 0 4 -4 4 -10z m-2750 -32 c0 -16 -3 -19 -11 -11 -6 6 -8 16 -5 22 11 17 16
13 16 -11z m-2275 2 c-3 -5 -15 -10 -25 -10 -10 0 -22 5 -25 10 -4 6 7 10 25
10 18 0 29 -4 25 -10z m55 -9 c14 -27 13 -30 -10 -24 -24 6 -34 19 -25 33 10
16 23 12 35 -9z m4934 4 c3 -9 0 -15 -9 -15 -8 0 -15 7 -15 15 0 8 4 15 9 15
5 0 11 -7 15 -15z m-1287 -31 c-9 -9 -28 6 -21 18 4 6 10 6 17 -1 6 -6 8 -13
4 -17z m277 -56 c-3 -5 2 -8 10 -8 19 0 21 -21 4 -38 -15 -15 -28 -15 -28 -1
0 7 -8 17 -17 24 -15 11 -15 17 -5 40 12 26 13 27 27 9 7 -10 11 -22 9 -26z
m-3913 -20 c-8 -22 -37 -34 -90 -37 -20 -1 -21 1 -11 14 7 8 20 15 30 15 10 0
23 7 30 15 7 8 21 15 31 15 15 0 17 -4 10 -22z m4328 -53 c-3 -2 -16 10 -29
28 l-23 32 29 -27 c15 -15 26 -30 23 -33z m-3312 -2 c-3 -10 -5 -2 -5 17 0 19
2 27 5 18 2 -10 2 -26 0 -35z m2563 16 c0 -15 -22 -21 -31 -8 -14 22 -11 28
11 22 11 -3 20 -9 20 -14z m380 -30 c0 -27 -2 -28 -20 -17 -23 14 -25 29 -8
46 16 16 28 5 28 -29z m711 8 c-8 -8 -11 -7 -11 4 0 20 13 34 18 19 3 -7 -1
-17 -7 -23z m-251 -32 c0 -8 -4 -15 -10 -15 -5 0 -7 7 -4 15 4 8 8 15 10 15 2
0 4 -7 4 -15z m-490 -26 c0 -10 -4 -19 -8 -19 -15 0 -31 22 -25 36 7 18 33 5
33 -17z m-30 -35 c0 -16 -16 -19 -25 -4 -8 13 4 32 16 25 5 -4 9 -13 9 -21z
m-2541 -168 c-5 -6 -140 -56 -148 -56 -13 1 36 25 84 41 50 18 72 23 64 15z
m376 -76 c-3 -5 -10 -10 -16 -10 -5 0 -9 5 -9 10 0 6 7 10 16 10 8 0 12 -4 9
-10z m-512 -7 c-13 -2 -33 -2 -45 0 -13 2 -3 4 22 4 25 0 35 -2 23 -4z m297
-183 c-20 -13 -33 -13 -25 0 3 6 14 10 23 10 15 0 15 -2 2 -10z m797 -82 c-2
-18 -4 -4 -4 32 0 36 2 50 4 33 2 -18 2 -48 0 -65z m-787 52 c0 -5 -5 -10 -11
-10 -5 0 -7 5 -4 10 3 6 8 10 11 10 2 0 4 -4 4 -10z m0 -85 c-7 -8 -17 -15
-22 -15 -6 0 -5 7 2 15 7 8 17 15 22 15 6 0 5 -7 -2 -15z m70 -64 c0 -17 -18
-21 -24 -6 -3 9 0 15 9 15 8 0 15 -4 15 -9z m240 -22 c0 -18 -2 -19 -15 -9
-15 12 -12 30 6 30 5 0 9 -10 9 -21z m-140 -30 c0 -5 -7 -9 -15 -9 -8 0 -15 7
-15 15 0 9 6 12 15 9 8 -4 15 -10 15 -15z m2071 -115 c9 -3 27 -24 40 -46 13
-22 33 -49 44 -60 20 -20 20 -20 -30 -13 -90 11 -92 12 -102 53 -11 41 2 87
21 77 6 -3 18 -8 27 -11z m-744 -76 c-3 -7 -5 -2 -5 12 0 14 2 19 5 13 2 -7 2
-19 0 -25z m738 -138 c8 -16 15 -33 15 -37 -1 -14 -40 39 -40 53 0 22 8 17 25
-16z m135 -20 c0 -29 -17 -33 -22 -5 -3 13 -3 27 0 29 9 10 22 -5 22 -24z
m310 -135 c10 -12 10 -15 -4 -15 -9 0 -16 7 -16 15 0 8 2 15 4 15 2 0 9 -7 16
-15z"/>
<path d="M1820 5339 c0 -5 5 -7 10 -4 6 3 10 8 10 11 0 2 -4 4 -10 4 -5 0 -10
-5 -10 -11z"/>
<path d="M875 5070 c10 -11 20 -20 23 -20 3 0 -3 9 -13 20 -10 11 -20 20 -23
20 -3 0 3 -9 13 -20z"/>
<path d="M990 4910 c0 -5 5 -10 11 -10 5 0 7 5 4 10 -3 6 -8 10 -11 10 -2 0
-4 -4 -4 -10z"/>
<path d="M2259 4983 c-13 -15 -12 -15 9 -4 23 12 28 21 13 21 -5 0 -15 -7 -22
-17z"/>
<path d="M2285 4619 c-20 -5 -8 -7 39 -3 38 2 72 6 74 9 8 8 -80 4 -113 -6z"/>
<path d="M2676 4392 c-8 -13 2 -79 15 -102 11 -20 11 -2 -1 39 -20 70 -2 39
41 -69 24 -61 45 -107 46 -103 2 5 -13 49 -32 98 -19 50 -35 95 -35 101 0 20
-26 48 -34 36z"/>
<path d="M2862 4275 c0 -16 2 -22 5 -12 2 9 2 23 0 30 -3 6 -5 -1 -5 -18z"/>
<path d="M2535 4090 c3 -5 8 -10 11 -10 2 0 4 5 4 10 0 6 -5 10 -11 10 -5 0
-7 -4 -4 -10z"/>
<path d="M2902 4065 c0 -16 2 -22 5 -12 2 9 2 23 0 30 -3 6 -5 -1 -5 -18z"/>
<path d="M2581 4048 c1 -18 5 -46 9 -63 6 -25 8 -20 9 27 0 31 -3 60 -9 63 -6
4 -10 -7 -9 -27z"/>
<path d="M2941 3824 c0 -11 3 -14 6 -6 3 7 2 16 -1 19 -3 4 -6 -2 -5 -13z"/>
<path d="M2520 3790 c6 -11 13 -20 16 -20 2 0 0 9 -6 20 -6 11 -13 20 -16 20
-2 0 0 -9 6 -20z"/>
<path d="M2930 3690 c6 -11 12 -20 14 -20 2 0 2 9 -1 20 -3 11 -9 20 -15 20
-5 0 -4 -9 2 -20z"/>
<path d="M2620 3620 c11 -22 23 -40 25 -40 3 0 -4 18 -15 40 -11 22 -23 40
-25 40 -3 0 4 -18 15 -40z"/>
<path d="M2680 3451 c0 -5 5 -13 10 -16 6 -3 10 -2 10 4 0 5 -4 13 -10 16 -5
3 -10 2 -10 -4z"/>
<path d="M2991 4324 c0 -11 3 -14 6 -6 3 7 2 16 -1 19 -3 4 -6 -2 -5 -13z"/>
<path d="M3001 4259 c1 -24 5 -55 9 -69 5 -15 6 1 3 40 -7 76 -13 93 -12 29z"/>
<path d="M3021 4114 c0 -11 3 -14 6 -6 3 7 2 16 -1 19 -3 4 -6 -2 -5 -13z"/>
<path d="M3042 3980 c0 -8 4 -26 8 -40 6 -20 8 -21 8 -5 0 11 -3 29 -8 40 -5
12 -8 14 -8 5z"/>
<path d="M3171 3574 c0 -11 3 -14 6 -6 3 7 2 16 -1 19 -3 4 -6 -2 -5 -13z"/>
<path d="M880 4330 c-8 -5 -10 -10 -5 -10 6 0 17 5 25 10 8 5 11 10 5 10 -5 0
-17 -5 -25 -10z"/>
<path d="M3632 4270 c0 -14 2 -19 5 -12 2 6 2 18 0 25 -3 6 -5 1 -5 -13z"/>
<path d="M3376 3889 c-31 -86 -64 -279 -48 -279 5 0 12 24 15 53 3 28 15 92
26 141 12 49 19 92 16 94 -2 3 -7 -1 -9 -9z"/>
<path d="M2620 3741 c0 -6 4 -13 10 -16 6 -3 7 1 4 9 -7 18 -14 21 -14 7z"/>
<path d="M4167 3423 c-59 -37 -105 -68 -103 -70 5 -5 186 103 206 123 23 23
11 16 -103 -53z"/>
<path d="M3770 3419 c0 -5 5 -7 10 -4 6 3 10 8 10 11 0 2 -4 4 -10 4 -5 0 -10
-5 -10 -11z"/>
<path d="M4090 3410 c0 -5 5 -10 11 -10 5 0 7 5 4 10 -3 6 -8 10 -11 10 -2 0
-4 -4 -4 -10z"/>
<path d="M4258 2993 c7 -3 16 -2 19 1 4 3 -2 6 -13 5 -11 0 -14 -3 -6 -6z"/>
<path d="M4300 2988 c-25 -6 -40 -12 -35 -14 6 -2 35 3 65 10 64 16 37 19 -30
4z"/>
<path d="M4395 2953 c-113 -33 -113 -33 -55 -27 30 3 68 11 85 19 16 7 37 16
45 18 35 12 -29 3 -75 -10z"/>
<path d="M4260 2920 c0 -5 5 -10 10 -10 6 0 10 5 10 10 0 6 -4 10 -10 10 -5 0
-10 -4 -10 -10z"/>
<path d="M1888 3805 c30 -45 132 -155 144 -155 6 0 32 -16 59 -36 82 -60 55
-30 -45 50 -52 42 -113 97 -136 123 -23 27 -33 35 -22 18z"/>
<path d="M1410 2660 c0 -5 5 -10 11 -10 5 0 7 5 4 10 -3 6 -8 10 -11 10 -2 0
-4 -4 -4 -10z"/>
<path d="M1468 2648 c5 -5 16 -8 23 -6 8 3 3 7 -10 11 -17 4 -21 3 -13 -5z"/>
<path d="M1436 2635 c-3 -9 -6 -22 -5 -28 0 -7 5 -1 10 12 5 13 8 26 5 28 -2
2 -6 -3 -10 -12z"/>
<path d="M1550 2629 c0 -19 -26 -33 -34 -18 -2 5 -3 4 -2 -3 2 -7 14 -12 26
-10 31 3 34 7 21 29 -9 15 -10 16 -11 2z"/>
<path d="M1597 2597 c-31 -35 -39 -40 -48 -27 -9 13 -10 13 -6 0 2 -8 13 -15
24 -16 11 -1 25 -4 31 -8 6 -4 8 2 5 14 -7 26 26 67 39 48 4 -7 8 -8 8 -3 0
34 -18 31 -53 -8z"/>
<path d="M1650 2632 c0 -10 22 -32 32 -32 5 0 3 9 -4 20 -13 20 -28 27 -28 12z"/>
<path d="M1450 2604 c0 -8 5 -12 10 -9 6 4 8 11 5 16 -9 14 -15 11 -15 -7z"/>
<path d="M1480 2604 c0 -8 5 -12 10 -9 6 3 10 10 10 16 0 5 -4 9 -10 9 -5 0
-10 -7 -10 -16z"/>
<path d="M1390 2600 c0 -5 7 -13 16 -18 9 -5 15 -12 15 -15 -3 -18 0 -27 7
-27 4 0 8 9 8 20 0 11 -4 20 -8 20 -4 0 -8 7 -8 15 0 8 -7 15 -15 15 -8 0 -15
-4 -15 -10z"/>
<path d="M1620 2583 c0 -14 19 -38 25 -32 8 8 -5 39 -16 39 -5 0 -9 -3 -9 -7z"/>
<path d="M1450 2540 c0 -5 5 -10 10 -10 6 0 10 5 10 10 0 6 -4 10 -10 10 -5 0
-10 -4 -10 -10z"/>
<path d="M4610 2536 c0 -2 8 -10 18 -17 15 -13 16 -12 3 4 -13 16 -21 21 -21
13z"/>
<path d="M3950 2510 c8 -5 20 -10 25 -10 6 0 3 5 -5 10 -8 5 -19 10 -25 10 -5
0 -3 -5 5 -10z"/>
<path d="M3860 2322 c13 -9 32 -24 41 -32 16 -15 39 -24 39 -15 0 6 -87 65
-97 64 -4 0 3 -8 17 -17z"/>
<path d="M3987 2239 c7 -7 15 -10 18 -7 3 3 -2 9 -12 12 -14 6 -15 5 -6 -5z"/>
<path d="M4040 2210 c0 -5 5 -10 11 -10 5 0 7 5 4 10 -3 6 -8 10 -11 10 -2 0
-4 -4 -4 -10z"/>
<path d="M4036 2172 c46 -33 84 -55 84 -48 0 6 -108 76 -117 76 -3 0 12 -13
33 -28z"/>
<path d="M4407 2139 c12 -12 25 -20 28 -17 3 3 -7 13 -22 23 l-28 17 22 -23z"/>
<path d="M4140 2112 c0 -4 14 -16 30 -25 17 -10 30 -16 30 -14 0 2 -13 13 -30
25 -16 13 -30 19 -30 14z"/>
<path d="M2089 1839 c-23 -19 -23 -20 -2 -10 12 6 25 16 28 21 10 16 -1 12
-26 -11z"/>
<path d="M3801 2169 c25 -24 73 -66 105 -94 120 -100 214 -188 209 -193 -3 -3
-21 10 -40 28 -19 18 -37 31 -40 28 -9 -8 19 -33 83 -75 31 -21 69 -50 84 -65
14 -16 29 -25 32 -20 8 13 -204 218 -334 323 -140 112 -159 125 -99 68z m340
-306 c13 -16 12 -17 -3 -4 -17 13 -22 21 -14 21 2 0 10 -8 17 -17z"/>
<path d="M3996 1938 c3 -5 10 -6 15 -3 13 9 11 12 -6 12 -8 0 -12 -4 -9 -9z"/>
<path d="M4220 1873 c13 -18 25 -33 27 -33 8 0 -17 38 -33 51 -11 9 -9 2 6
-18z"/>
<path d="M3815 1381 c32 -36 147 -121 161 -121 10 0 -96 103 -108 106 -5 1
-14 2 -20 3 -9 1 -9 4 2 12 13 9 13 10 -1 6 -9 -3 -27 2 -40 10 -20 13 -18 10
6 -16z"/>
<path d="M3710 1266 c0 -2 8 -10 18 -17 15 -13 16 -12 3 4 -13 16 -21 21 -21
13z"/>
<path d="M2960 1516 c0 -9 5 -16 10 -16 6 0 10 4 10 9 0 6 -4 13 -10 16 -5 3
-10 -1 -10 -9z"/>
<path d="M3922 1540 c0 -14 2 -19 5 -12 2 6 2 18 0 25 -3 6 -5 1 -5 -13z"/>
<path d="M392 4024 c-10 -18 12 -74 29 -74 13 0 11 13 -3 30 -11 12 -10 12 4
1 9 -7 22 -10 28 -6 5 3 10 2 10 -4 0 -6 -9 -15 -20 -21 -47 -25 -7 -60 69
-60 47 0 71 7 127 36 89 47 106 63 29 28 -74 -33 -157 -53 -162 -38 -2 5 -19
8 -38 6 -22 -3 -35 0 -35 7 0 7 5 9 11 6 14 -9 40 26 33 45 -4 12 -3 12 7 3
10 -10 9 -16 -1 -28 -7 -8 -10 -18 -7 -22 4 -3 12 7 19 23 7 16 17 33 23 37 6
5 4 7 -5 6 -30 -3 -50 1 -50 11 0 6 21 8 53 5 36 -3 47 -2 37 5 -20 13 -100
13 -100 -1 0 -6 -10 -9 -22 -7 -13 2 -22 9 -20 16 3 17 -5 15 -16 -4z"/>
<path d="M340 3970 c0 -5 5 -10 10 -10 6 0 10 5 10 10 0 6 -4 10 -10 10 -5 0
-10 -4 -10 -10z"/>
<path d="M795 3945 c-38 -19 -60 -33 -48 -31 12 1 26 5 29 9 4 4 14 7 22 7 12
0 12 -4 -3 -20 -10 -11 -16 -22 -13 -25 3 -3 13 6 23 21 10 15 29 38 44 50 34
30 30 29 -54 -11z"/>
<path d="M323 3944 c1 -22 5 -30 14 -27 15 6 18 23 4 23 -5 0 -12 8 -14 18 -3
9 -5 3 -4 -14z"/>
<path d="M372 3950 c-11 -18 -9 -20 14 -20 24 0 25 2 13 18 -7 9 -14 18 -14
19 0 1 -6 -7 -13 -17z"/>
<path d="M62 3920 c-7 -11 -21 -20 -31 -20 -22 0 -36 -16 -22 -24 5 -4 12 -2
16 3 3 6 11 8 19 5 7 -3 18 7 25 22 14 32 10 41 -7 14z"/>
<path d="M350 3910 c0 -5 7 -10 16 -10 8 0 12 5 9 10 -3 6 -10 10 -16 10 -5 0
-9 -4 -9 -10z"/>
<path d="M210 3900 c0 -5 4 -10 9 -10 6 0 13 5 16 10 3 6 -1 10 -9 10 -9 0
-16 -4 -16 -10z"/>
<path d="M150 3879 c-6 -11 -10 -25 -8 -30 2 -5 8 4 15 21 13 34 9 40 -7 9z"/>
<path d="M241 3878 c-1 -10 -5 -18 -11 -18 -15 0 -32 -38 -19 -45 6 -4 13 2
16 14 4 17 10 20 27 15 17 -6 19 -4 10 7 -6 8 -14 21 -17 29 -4 12 -6 11 -6
-2z"/>
<path d="M365 3883 c11 -3 23 -10 27 -17 5 -7 8 -5 8 7 0 12 -7 17 -27 16 -22
-1 -23 -2 -8 -6z"/>
<path d="M77 3864 c3 -7 9 -14 14 -14 14 0 10 17 -5 23 -10 4 -13 1 -9 -9z"/>
<path d="M190 3869 c0 -5 5 -7 10 -4 6 3 10 8 10 11 0 2 -4 4 -10 4 -5 0 -10
-5 -10 -11z"/>
<path d="M310 3871 c0 -5 5 -13 10 -16 6 -3 10 -2 10 4 0 5 -4 13 -10 16 -5 3
-10 2 -10 -4z"/>
<path d="M626 3862 c-3 -5 1 -9 9 -9 8 0 12 4 9 9 -3 4 -7 8 -9 8 -2 0 -6 -4
-9 -8z"/>
<path d="M0 3856 c0 -2 9 -6 20 -9 11 -3 20 -1 20 4 0 5 -9 9 -20 9 -11 0 -20
-2 -20 -4z"/>
<path d="M447 3840 c3 -11 9 -20 14 -20 11 0 11 3 3 24 -9 23 -23 20 -17 -4z"/>
<path d="M500 3850 c0 -6 7 -10 15 -10 8 0 15 2 15 4 0 2 -7 6 -15 10 -8 3
-15 1 -15 -4z"/>
<path d="M550 3855 c0 -1 8 -9 17 -16 14 -12 15 -12 9 0 -7 10 -3 12 15 6 13
-4 21 -4 17 0 -7 7 -58 16 -58 10z"/>
<path d="M757 3853 c-4 -3 -7 -13 -7 -22 1 -13 3 -13 11 2 11 19 8 33 -4 20z"/>
<path d="M395 3841 c-6 -11 13 -26 22 -17 4 3 0 6 -8 6 -11 0 -11 2 1 10 9 6
10 10 3 10 -6 0 -14 -4 -18 -9z"/>
<path d="M285 3830 c3 -5 11 -10 16 -10 6 0 7 5 4 10 -3 6 -11 10 -16 10 -6 0
-7 -4 -4 -10z"/>
<path d="M260 3809 c0 -5 5 -7 10 -4 6 3 10 8 10 11 0 2 -4 4 -10 4 -5 0 -10
-5 -10 -11z"/>
<path d="M237 3789 c7 -7 15 -10 18 -7 3 3 -2 9 -12 12 -14 6 -15 5 -6 -5z"/>
<path d="M786 3729 c-29 -41 -51 -47 -51 -13 0 31 -29 22 -36 -11 -9 -40 -10
-120 -3 -139 3 -9 12 -16 20 -16 8 0 14 -7 14 -16 0 -8 5 -12 11 -9 6 4 8 13
5 21 -6 14 10 60 58 167 30 67 23 73 -18 16z"/>
<path d="M1000 3714 c-30 -19 -49 -34 -42 -34 15 0 88 45 97 60 8 14 8 13 -55
-26z"/>
<path d="M1432 3687 c-22 -26 -63 -175 -72 -262 -6 -49 -12 -99 -14 -110 -3
-11 -8 -33 -11 -49 -5 -24 -8 -27 -16 -15 -8 11 -9 10 -5 -6 3 -11 7 -32 10
-47 3 -15 7 -32 11 -38 8 -13 46 -33 44 -23 -1 4 5 24 14 44 13 30 16 71 15
220 -1 163 1 191 20 242 21 59 22 66 4 44z"/>
<path d="M1134 3455 c3 -22 6 -55 6 -72 0 -18 5 -33 10 -33 17 0 11 103 -7
125 -15 19 -15 18 -9 -20z"/>
<path d="M1202 3383 c-38 -76 -45 -109 -27 -142 15 -30 45 -43 45 -20 0 6 9
24 21 40 11 16 16 29 10 29 -6 0 -11 7 -11 16 0 9 -5 12 -12 8 -8 -5 -9 8 -4
49 3 32 4 57 1 57 -2 0 -13 -17 -23 -37z m-1 -40 c-12 -20 -14 -14 -5 12 4 9
9 14 11 11 3 -2 0 -13 -6 -23z"/>
<path d="M1556 3393 c-6 -14 -5 -15 5 -6 7 7 10 15 7 18 -3 3 -9 -2 -12 -12z"/>
<path d="M1840 3369 c12 -21 37 -35 47 -25 6 6 -36 45 -50 46 -4 0 -3 -9 3
-21z"/>
<path d="M1915 3350 c-3 -5 1 -10 10 -10 9 0 13 5 10 10 -3 6 -8 10 -10 10 -2
0 -7 -4 -10 -10z"/>
<path d="M1788 3343 c12 -2 30 -2 40 0 9 3 -1 5 -23 4 -22 0 -30 -2 -17 -4z"/>
<path d="M1968 3338 c6 -6 18 -8 28 -6 14 3 12 5 -9 10 -19 3 -25 2 -19 -4z"/>
<path d="M1141 3324 c0 -11 3 -14 6 -6 3 7 2 16 -1 19 -3 4 -6 -2 -5 -13z"/>
<path d="M1271 3317 c-13 -21 -12 -21 5 -5 10 10 16 20 13 22 -3 3 -11 -5 -18
-17z"/>
<path d="M1920 3309 c0 -5 9 -9 20 -9 11 0 20 2 20 4 0 2 -9 6 -20 9 -11 3
-20 1 -20 -4z"/>
<path d="M1639 3303 c0 -4 0 -36 1 -70 1 -50 -2 -63 -17 -72 -10 -6 -13 -11
-7 -11 6 0 18 8 26 18 18 20 25 127 9 137 -6 3 -11 3 -12 -2z"/>
<path d="M1828 3293 c7 -3 16 -2 19 1 4 3 -2 6 -13 5 -11 0 -14 -3 -6 -6z"/>
<path d="M1978 3293 c7 -3 16 -2 19 1 4 3 -2 6 -13 5 -11 0 -14 -3 -6 -6z"/>
<path d="M2020 3280 c8 -5 20 -10 25 -10 6 0 3 5 -5 10 -8 5 -19 10 -25 10 -5
0 -3 -5 5 -10z"/>
<path d="M1845 3159 c-4 -6 -13 -8 -21 -5 -27 10 -14 -12 29 -48 145 -126 176
-147 197 -134 11 7 20 15 19 18 0 3 -26 18 -57 33 -72 35 -154 95 -147 107 3
5 1 11 -5 15 -6 4 -8 11 -5 16 4 5 4 9 1 9 -3 0 -8 -5 -11 -11z"/>
<path d="M1890 3116 c0 -3 9 -10 20 -16 11 -6 20 -8 20 -6 0 3 -9 10 -20 16
-11 6 -20 8 -20 6z"/>
<path d="M1933 3005 c0 -7 6 -11 14 -8 7 3 13 6 13 8 0 2 -6 5 -13 8 -8 3 -14
-1 -14 -8z"/>
<path d="M1007 2954 c-25 -33 -11 -46 13 -14 11 14 20 28 20 33 0 14 -15 6
-33 -19z"/>
<path d="M1765 2960 c-3 -6 1 -7 9 -4 18 7 21 14 7 14 -6 0 -13 -4 -16 -10z"/>
<path d="M730 2940 c0 -5 5 -10 10 -10 6 0 10 5 10 10 0 6 -4 10 -10 10 -5 0
-10 -4 -10 -10z"/>
<path d="M37 2593 c-10 -9 -9 -23 2 -23 5 0 11 7 15 15 5 15 -5 20 -17 8z"/>
</g>
</svg>
